<svg version="1.1" xmlns="http://www.w3.org/2000/svg" viewBox="0 0 1352.5772572724309 166.44273222101864" width="2705.1545145448617" height="332.8854644420373">
  <!-- svg-source:excalidraw -->
  
  <defs>
    <style class="style-fonts">
      @font-face {
        font-family: "Virgil";
        src: url("https://excalidraw.com/Virgil.woff2");
      }
      @font-face {
        font-family: "Cascadia";
        src: url("https://excalidraw.com/Cascadia.woff2");
      }
    </style>
    
  </defs>
  <rect x="0" y="0" width="1352.5772572724309" height="166.44273222101864" fill="#ffffff"></rect><g stroke-linecap="round" transform="translate(10 10) rotate(0 666.2886286362154 73.22136611050932)"><path d="M3.68 -3.09 L1333.62 -2.95 L1333.7 144.38 L1.69 149.84" stroke="none" stroke-width="0" fill="#ffffff"></path><path d="M-0.91 0.61 C456.4 4.16, 909.28 5.88, 1332.99 -1.11 M1331.4 -3.97 C1326.98 57.61, 1330.26 108.39, 1333.78 145.26 M1333.37 146.2 C914.04 156.04, 492.77 155.28, -1.25 147.53 M1.79 145.2 C-0.35 95.56, 4.12 43.82, 1.99 -1.08" stroke="transparent" stroke-width="2.5" fill="none" stroke-dasharray="8 10"></path></g><g stroke-linecap="round" transform="translate(122.18280461902373 25.64360902937102) rotate(0 88.02940526726366 54.381371639193446)"><path d="M64.25 3 C75.74 0.37, 91.93 0.87, 104.66 2.35 C117.38 3.83, 130.46 7.62, 140.6 11.9 C150.74 16.17, 159.9 21.32, 165.5 28 C171.1 34.67, 173.78 44.17, 174.19 51.94 C174.6 59.71, 172.5 67.04, 167.95 74.63 C163.39 82.23, 156.59 92.38, 146.86 97.54 C137.13 102.7, 121.99 103.85, 109.57 105.59 C97.15 107.33, 84.65 109.15, 72.34 107.98 C60.02 106.81, 45.93 103.24, 35.68 98.57 C25.44 93.9, 17.07 87.2, 10.86 79.95 C4.65 72.7, -0.97 62.64, -1.56 55.06 C-2.14 47.47, 2.01 41.72, 7.33 34.44 C12.64 27.15, 17.9 17.24, 30.32 11.35 C42.75 5.45, 70.35 0.37, 81.89 -0.94 C93.43 -2.25, 99.18 2.52, 99.57 3.49 M61.21 1.57 C72.35 -1.85, 84.93 0.46, 97.19 1.75 C109.45 3.04, 123.81 5.68, 134.78 9.32 C145.74 12.96, 156.01 17.29, 162.99 23.61 C169.98 29.93, 175.25 38.71, 176.67 47.23 C178.09 55.75, 175.86 67.01, 171.52 74.72 C167.18 82.43, 159.5 87.81, 150.62 93.48 C141.74 99.14, 130.17 106.25, 118.23 108.69 C106.3 111.14, 91.6 109.81, 78.99 108.14 C66.37 106.47, 54.03 102.98, 42.54 98.68 C31.05 94.39, 16.68 88.46, 10.05 82.35 C3.43 76.25, 3.3 69.97, 2.78 62.05 C2.26 54.13, 2.86 42.67, 6.94 34.84 C11.02 27.01, 18.9 20.31, 27.27 15.08 C35.65 9.84, 51.87 5.68, 57.21 3.44 C62.54 1.2, 58.55 1.23, 59.27 1.62" stroke="none" stroke-width="0" fill="#eebefa88"></path><path d="M27.8 15 C36.34 9.55, 52.34 4.7, 64.79 2.54 C77.24 0.38, 90.4 1.07, 102.52 2.03 C114.63 2.98, 126.89 3.84, 137.51 8.27 C148.13 12.7, 160.06 21.45, 166.24 28.61 C172.42 35.77, 173.82 43.68, 174.57 51.25 C175.33 58.81, 175.55 67.01, 170.76 74 C165.98 80.98, 155.42 87.42, 145.89 93.18 C136.36 98.93, 125.71 106.06, 113.59 108.55 C101.47 111.03, 86.07 109.44, 73.19 108.09 C60.31 106.75, 46.95 105.31, 36.32 100.47 C25.69 95.63, 15.42 86.2, 9.42 79.05 C3.42 71.9, 1.02 65.18, 0.3 57.59 C-0.42 50, -3.83 42.26, 5.11 33.49 C14.06 24.71, 40.35 10.08, 53.95 4.96 C67.56 -0.17, 86.13 2.37, 86.75 2.74 M43.73 8.59 C53.68 3.87, 67.39 -0.46, 79.89 -1.48 C92.38 -2.49, 106.16 -1.15, 118.72 2.48 C131.28 6.1, 146.42 14.55, 155.26 20.29 C164.1 26.03, 168.48 29.47, 171.76 36.9 C175.03 44.33, 176.76 56.81, 174.93 64.85 C173.1 72.89, 167.83 78.92, 160.77 85.14 C153.71 91.36, 143.63 98.26, 132.59 102.16 C121.54 106.07, 107.22 108.28, 94.49 108.58 C81.76 108.88, 67.68 107.22, 56.22 103.98 C44.75 100.74, 34.81 94.49, 25.69 89.14 C16.57 83.79, 5.5 78.65, 1.48 71.88 C-2.55 65.11, -0.63 56.99, 1.54 48.52 C3.7 40.05, 6.83 27.78, 14.47 21.06 C22.11 14.35, 41.82 9.99, 47.38 8.23 C52.95 6.48, 48.02 9.58, 47.85 10.53" stroke="#1e1e1e" stroke-width="2" fill="none"></path></g><g stroke-linecap="round" transform="translate(532.7598134353018 21.219401625837065) rotate(0 135.883017309068 62.31736701489575)"><path d="M135.05 -1.44 L268.65 65.99 L139.78 122.37 L-2.67 64.57" stroke="none" stroke-width="0" fill="#fff9db" fill-rule="evenodd"></path><path d="M132.7 2.44 C168.08 15.6, 196.15 31.54, 268.66 59.41 M135.84 1.45 C183.31 23.52, 231.04 47.94, 273.66 63.01 M268.75 59.85 C230.2 84.69, 185.13 103.03, 132.99 126.83 M270 61.97 C221.35 84.34, 172.99 107.64, 134.56 123.57 M139.5 123.88 C102.57 112.33, 76.05 98.53, -0.24 64.42 M136.6 124.04 C94.47 103.76, 48.16 86.77, 0.31 64.74 M1.51 66.26 C39.81 40.65, 74.78 24.66, 135.2 -1.04 M1.16 63.15 C36.9 48.01, 72.79 30.68, 134.97 -1.81" stroke="#1e1e1e" stroke-width="2" fill="none"></path></g><g stroke-linecap="round" transform="translate(1020.2323633965597 37.16180416615708) rotate(0 94.68558318287188 51.19230436622178)"><path d="M25.6 0 C59.73 -1.47, 94.19 0.48, 163.78 0 C181.46 -4.52, 185.77 8.35, 189.37 25.6 C186.6 42.85, 187.41 71.12, 189.37 76.79 C191.85 92.05, 179.02 98.1, 163.78 102.38 C105.85 103.22, 52.48 101.95, 25.6 102.38 C8.35 97.98, 1.98 90.73, 0 76.79 C-0.47 64.04, 4.34 46.93, 0 25.6 C-0.38 12.6, 5.89 -5.44, 25.6 0" stroke="none" stroke-width="0" fill="#e3fafc"></path><path d="M25.6 0 C76.6 -2.6, 119.03 2.73, 163.78 0 M25.6 0 C71.76 -1.05, 114.31 -1.59, 163.78 0 M163.78 0 C183.44 3.78, 189.4 8.75, 189.37 25.6 M163.78 0 C179.28 4.08, 185.9 4.9, 189.37 25.6 M189.37 25.6 C189.45 38.37, 191.68 59.78, 189.37 76.79 M189.37 25.6 C187.81 43.32, 189.06 64.1, 189.37 76.79 M189.37 76.79 C191.36 90.97, 178.7 99.68, 163.78 102.38 M189.37 76.79 C187.19 97.37, 184.87 101.51, 163.78 102.38 M163.78 102.38 C131.1 103.99, 98.92 104.89, 25.6 102.38 M163.78 102.38 C119.52 104.95, 75.15 101.71, 25.6 102.38 M25.6 102.38 C10.97 103, 3.49 92.29, 0 76.79 M25.6 102.38 C4.89 106.75, 1.74 97.6, 0 76.79 M0 76.79 C-2.02 56.39, -0.19 36.2, 0 25.6 M0 76.79 C0.72 60.59, 0.77 42.84, 0 25.6 M0 25.6 C-0.82 6.46, 4.91 -0.95, 25.6 0 M0 25.6 C-1.66 4.95, 11.98 4.35, 25.6 0" stroke="#1e1e1e" stroke-width="2" fill="none"></path></g><g stroke-linecap="round"><g transform="translate(298.4930786372595 79.24091320569204) rotate(0 121.90654184486095 -15.364495009380263)"><path d="M0.21 -0.17 C19.05 -5.58, 72.22 -32.59, 112.83 -32.33 C153.44 -32.08, 222.03 -4.32, 243.85 1.36 M-0.04 0.37 C18.78 -5.01, 71.9 -32.23, 112.53 -32.02 C153.16 -31.81, 221.86 -3.94, 243.74 1.61" stroke="#1e1e1e" stroke-width="2" fill="none"></path></g><g transform="translate(298.4930786372595 79.24091320569204) rotate(0 121.90654184486095 -15.364495009380263)"><path d="M213.76 2.81 C219.87 2.23, 226.43 2.5, 243.74 1.61 M213.76 2.81 C221.47 2.68, 228.84 2.13, 243.74 1.61" stroke="#1e1e1e" stroke-width="2" fill="none"></path></g><g transform="translate(298.4930786372595 79.24091320569204) rotate(0 121.90654184486095 -15.364495009380263)"><path d="M220 -16.74 C224.79 -13.1, 230.01 -8.63, 243.74 1.61 M220 -16.74 C226.16 -11.97, 231.97 -7.64, 243.74 1.61" stroke="#1e1e1e" stroke-width="2" fill="none"></path></g></g><mask></mask><g stroke-linecap="round"><g transform="translate(793.8085876937215 77.31367199440575) rotate(0 112.61648554402046 -14.483013693896144)"><path d="M-0.09 0.05 C18.83 -5.4, 76.25 -33.39, 113.82 -32.77 C151.39 -32.14, 206.79 -2.24, 225.33 3.81 M0.43 -0.19 C19.43 -5.58, 76.95 -32.96, 114.41 -32.37 C151.88 -31.78, 206.77 -2.68, 225.21 3.35" stroke="#1e1e1e" stroke-width="2" fill="none"></path></g><g transform="translate(793.8085876937215 77.31367199440575) rotate(0 112.61648554402046 -14.483013693896144)"><path d="M195.24 2.12 C206.97 2.24, 218.49 3.41, 225.21 3.35 M195.24 2.12 C207.08 2.45, 218.38 2.83, 225.21 3.35" stroke="#1e1e1e" stroke-width="2" fill="none"></path></g><g transform="translate(793.8085876937215 77.31367199440575) rotate(0 112.61648554402046 -14.483013693896144)"><path d="M203.03 -16.86 C211.73 -9.38, 220.22 -0.84, 225.21 3.35 M203.03 -16.86 C211.82 -9.15, 220.09 -1.4, 225.21 3.35" stroke="#1e1e1e" stroke-width="2" fill="none"></path></g></g><mask></mask><g stroke-linecap="round"><g transform="translate(1019.2323633965597 90.3257723892207) rotate(0 -111.64724339522422 14.539047758293197)"><path d="M0.01 -0.12 C-18.94 5.18, -76.24 32.13, -113.46 31.71 C-150.68 31.29, -205 3.16, -223.3 -2.64" stroke="#1e1e1e" stroke-width="2.5" fill="none" stroke-dasharray="8 10"></path></g><g transform="translate(1019.2323633965597 90.3257723892207) rotate(0 -111.64724339522422 14.539047758293197)"><path d="M-193.32 -1.7 C-205.21 -1.97, -216.49 -2.01, -223.3 -2.64" stroke="#1e1e1e" stroke-width="2.5" fill="none"></path></g><g transform="translate(1019.2323633965597 90.3257723892207) rotate(0 -111.64724339522422 14.539047758293197)"><path d="M-200.93 17.35 C-209.85 9.67, -218.16 2.22, -223.3 -2.64" stroke="#1e1e1e" stroke-width="2.5" fill="none"></path></g></g><mask></mask><g stroke-linecap="round"><g transform="translate(540.2859272772148 90.16808290352236) rotate(0 -122.27322127020443 15.505442036814497)"><path d="M0.03 0.05 C-20.14 5.24, -80.45 29.72, -121.22 30.91 C-161.99 32.1, -223.97 11.12, -244.57 7.2" stroke="#1e1e1e" stroke-width="2.5" fill="none" stroke-dasharray="8 10"></path></g><g transform="translate(540.2859272772148 90.16808290352236) rotate(0 -122.27322127020443 15.505442036814497)"><path d="M-214.73 4.15 C-221.24 4.86, -227.61 5.58, -244.57 7.2" stroke="#1e1e1e" stroke-width="2.5" fill="none"></path></g><g transform="translate(540.2859272772148 90.16808290352236) rotate(0 -122.27322127020443 15.505442036814497)"><path d="M-219.75 24.05 C-225.11 20.35, -230.36 16.66, -244.57 7.2" stroke="#1e1e1e" stroke-width="2.5" fill="none"></path></g></g><mask></mask><g transform="translate(161.9822356354657 61.991390088060015) rotate(0 49.21875 16.800000000000004)"><text x="49.21875" y="0" font-family="Cascadia, Segoe UI Emoji" font-size="28px" fill="#1e1e1e" text-anchor="middle" style="white-space: pre;" direction="ltr" dominant-baseline="text-before-edge">Client</text></g><g transform="translate(571.6086753118011 66.11359575238248) rotate(0 98.4375 16.8)"><text x="98.4375" y="0" font-family="Cascadia, Segoe UI Emoji" font-size="28px" fill="#1e1e1e" text-anchor="middle" style="white-space: pre;" direction="ltr" dominant-baseline="text-before-edge">Proxy Server</text></g><g transform="translate(1065.714141170101 71.06279181436743) rotate(0 49.21875 16.800000000000004)"><text x="49.21875" y="0" font-family="Cascadia, Segoe UI Emoji" font-size="28px" fill="#1e1e1e" text-anchor="middle" style="white-space: pre;" direction="ltr" dominant-baseline="text-before-edge">Server</text></g></svg>