<svg version="1.1" xmlns="http://www.w3.org/2000/svg" viewBox="0 0 1359.180784712361 1308.8443428779287" width="2718.361569424722" height="2617.6886857558575">
  <!-- svg-source:excalidraw -->
  
  <defs>
    <style class="style-fonts">
      @font-face {
        font-family: "Virgil";
        src: url("https://excalidraw.com/Virgil.woff2");
      }
      @font-face {
        font-family: "Cascadia";
        src: url("https://excalidraw.com/Cascadia.woff2");
      }
      @font-face {
        font-family: "Assistant";
        src: url("https://excalidraw.com/Assistant-Regular.woff2");
      }
    </style>
    
  </defs>
  <rect x="0" y="0" width="1359.180784712361" height="1308.8443428779287" fill="#ffffff"></rect><g stroke-linecap="round" transform="translate(10 10.064405054118197) rotate(0 669.5903923561805 644.0000375946191)"><path d="M0 0 L1339.18 0 L1339.18 1288 L0 1288" stroke="none" stroke-width="0" fill="#ffffff"></path><path d="M0 0 C286.36 0, 572.71 0, 1339.18 0 M0 0 C335.13 0, 670.26 0, 1339.18 0 M1339.18 0 C1339.18 438.39, 1339.18 876.79, 1339.18 1288 M1339.18 0 C1339.18 346.33, 1339.18 692.66, 1339.18 1288 M1339.18 1288 C917.14 1288, 495.09 1288, 0 1288 M1339.18 1288 C1046.76 1288, 754.33 1288, 0 1288 M0 1288 C0 919.85, 0 551.7, 0 0 M0 1288 C0 890.1, 0 492.21, 0 0" stroke="transparent" stroke-width="2" fill="none"></path></g><g stroke-opacity="0.8" fill-opacity="0.8" stroke-linecap="round" transform="translate(454.10855865209146 10) rotate(0 153.80820524322655 644.4221714389644)"><path d="M0 0 L307.62 0 L307.62 1288.84 L0 1288.84" stroke="none" stroke-width="0" fill="#ebecfc"></path><path d="M0 0 C96.45 0, 192.9 0, 307.62 0 M0 0 C120.07 0, 240.14 0, 307.62 0 M307.62 0 C307.62 367.39, 307.62 734.78, 307.62 1288.84 M307.62 0 C307.62 260.2, 307.62 520.39, 307.62 1288.84 M307.62 1288.84 C243.56 1288.84, 179.5 1288.84, 0 1288.84 M307.62 1288.84 C184.76 1288.84, 61.89 1288.84, 0 1288.84 M0 1288.84 C0 956.6, 0 624.36, 0 0 M0 1288.84 C0 938.8, 0 588.75, 0 0" stroke="transparent" stroke-width="2" fill="none"></path></g><g stroke-linecap="round" transform="translate(203.26834707328453 216.57540722907532) rotate(0 60.331188997579034 53.232012634326395)"><path d="M84.22 3.99 C92.57 6.35, 100.48 12.99, 106.24 19.4 C112 25.82, 116.87 34.43, 118.79 42.46 C120.71 50.5, 120.16 59.74, 117.79 67.6 C115.41 75.47, 110.89 83.55, 104.54 89.65 C98.19 95.76, 88.72 101.52, 79.68 104.25 C70.64 106.98, 59.47 107.34, 50.29 106.05 C41.11 104.75, 31.91 101.33, 24.6 96.49 C17.29 91.65, 10.58 84.51, 6.42 77.02 C2.27 69.53, -0.48 59.97, -0.34 51.58 C-0.19 43.18, 2.75 33.74, 7.31 26.66 C11.88 19.57, 19.01 13.56, 27.08 9.06 C35.15 4.56, 45.87 0.44, 55.73 -0.34 C65.6 -1.12, 81.06 3.31, 86.28 4.36 C91.5 5.4, 87.46 5.02, 87.05 5.93 M31.62 7.09 C39.04 2.39, 50.08 -1, 59.57 -1.24 C69.06 -1.48, 80.13 1.33, 88.56 5.63 C96.99 9.92, 105.08 17.36, 110.13 24.52 C115.19 31.68, 118.05 40.83, 118.89 48.59 C119.73 56.36, 118.12 63.78, 115.18 71.13 C112.23 78.48, 108.17 87.16, 101.23 92.7 C94.3 98.25, 82.99 102.55, 73.56 104.4 C64.13 106.26, 53.71 105.79, 44.66 103.84 C35.61 101.88, 26.14 98.22, 19.27 92.65 C12.4 87.08, 6.36 78.21, 3.45 70.42 C0.54 62.63, 0.34 53.67, 1.83 45.92 C3.31 38.17, 7.04 30.45, 12.36 23.92 C17.67 17.39, 30.13 9.78, 33.74 6.76 C37.35 3.74, 33.84 5.14, 34.01 5.8" stroke="#1e1e1e" stroke-width="2" fill="none"></path></g><g stroke-linecap="round" transform="translate(266.9378548634909 261.12044250208334) rotate(0 60.331188997579034 53.232012634326395)"><path d="M86.27 6.2 C94.72 8.86, 102.72 14.87, 108.31 21.3 C113.9 27.73, 118.4 36.57, 119.82 44.75 C121.23 52.94, 119.86 62.4, 116.81 70.43 C113.76 78.45, 108.29 87.33, 101.54 92.92 C94.8 98.5, 85.14 102.01, 76.33 103.94 C67.52 105.88, 57.76 106.07, 48.68 104.54 C39.61 103.01, 29.09 100.05, 21.88 94.77 C14.67 89.48, 9.14 80.7, 5.44 72.82 C1.73 64.95, -0.89 55.61, -0.35 47.53 C0.19 39.44, 3.58 31.06, 8.65 24.29 C13.73 17.51, 21.95 11.06, 30.11 6.88 C38.28 2.69, 47.86 -0.79, 57.66 -0.81 C67.46 -0.82, 83.36 5.29, 88.91 6.8 C94.47 8.31, 91.24 7.58, 90.97 8.27 M66.86 0.84 C75.72 1, 86.48 6.03, 94.34 10.35 C102.2 14.68, 109.66 19.55, 114.03 26.78 C118.4 34, 120.71 45.09, 120.57 53.69 C120.43 62.28, 117.5 71.15, 113.19 78.35 C108.88 85.55, 101.95 92.19, 94.71 96.89 C87.48 101.58, 78.99 105.42, 69.79 106.52 C60.59 107.62, 48.38 106.33, 39.52 103.47 C30.65 100.61, 22.94 95.27, 16.6 89.35 C10.25 83.43, 4.13 75.94, 1.45 67.94 C-1.23 59.93, -1.76 49.7, 0.53 41.32 C2.83 32.94, 9.08 23.92, 15.22 17.64 C21.36 11.36, 28.81 6.52, 37.38 3.65 C45.95 0.79, 61.55 0.91, 66.66 0.44 C71.77 -0.02, 67.97 0.04, 68.04 0.87" stroke="#1e1e1e" stroke-width="2" fill="none"></path></g><g stroke-linecap="round" transform="translate(516.0835149434529 250.97688736567994) rotate(0 89.05857697250076 50.60229924579431)"><path d="M25.3 0 C65 1.51, 104.57 -0.01, 152.82 0 M25.3 0 C67.96 0.6, 110.75 1.61, 152.82 0 M152.82 0 C169.01 1.09, 177.89 10.42, 178.12 25.3 M152.82 0 C167.77 -1.61, 176.09 9.94, 178.12 25.3 M178.12 25.3 C178.1 42.12, 179.17 60.35, 178.12 75.9 M178.12 25.3 C177.57 35.58, 178.06 47.76, 178.12 75.9 M178.12 75.9 C180.07 93.8, 171.08 101.56, 152.82 101.2 M178.12 75.9 C180.07 91.92, 169.69 99.38, 152.82 101.2 M152.82 101.2 C123.85 99.59, 99.54 100.98, 25.3 101.2 M152.82 101.2 C125.03 102.02, 99.09 102.27, 25.3 101.2 M25.3 101.2 C7.67 102.15, -1.52 91.78, 0 75.9 M25.3 101.2 C7.06 100.19, 0.16 94.31, 0 75.9 M0 75.9 C0.04 57.18, 2.11 34.01, 0 25.3 M0 75.9 C-0.84 65.22, -0.33 54.59, 0 25.3 M0 25.3 C1.4 8.83, 10.01 -0.13, 25.3 0 M0 25.3 C-2.12 7.1, 6.97 2.14, 25.3 0" stroke="#1e1e1e" stroke-width="2" fill="none"></path></g><g stroke-linecap="round" transform="translate(869.252448344628 246.83548244841097) rotate(0 111.02009557054055 51.880413437625776)"><path d="M72.81 2.19 C85.62 -0.71, 103.92 -0.42, 118.91 0.31 C133.89 1.03, 149.36 3.38, 162.74 6.54 C176.12 9.69, 189.93 13.83, 199.19 19.25 C208.46 24.67, 214.95 32.06, 218.32 39.06 C221.69 46.06, 222.01 54.38, 219.42 61.23 C216.83 68.07, 211.23 74.35, 202.77 80.11 C194.31 85.87, 181.46 92.05, 168.67 95.8 C155.88 99.55, 140.73 101.66, 126.01 102.62 C111.28 103.58, 94.73 103.26, 80.33 101.54 C65.94 99.82, 51.02 96.67, 39.62 92.31 C28.23 87.94, 18.66 81.83, 11.95 75.35 C5.25 68.87, 0.01 60.47, -0.64 53.41 C-1.29 46.35, 2.42 39.62, 8.05 32.98 C13.67 26.34, 21.08 18.73, 33.11 13.59 C45.14 8.45, 71.22 4.18, 80.25 2.15 C89.29 0.13, 86.77 0.49, 87.31 1.46 M152.98 3.44 C166.69 5.25, 180.71 11.76, 190.92 16.69 C201.14 21.62, 209.22 26.53, 214.28 33.02 C219.35 39.52, 222.35 48.41, 221.31 55.67 C220.27 62.93, 214.85 70.25, 208.03 76.6 C201.2 82.95, 191.92 89.64, 180.35 93.75 C168.77 97.85, 153.39 99.62, 138.57 101.23 C123.74 102.85, 106.39 104.34, 91.4 103.46 C76.4 102.57, 61.08 100.02, 48.62 95.95 C36.16 91.87, 24.72 85.16, 16.62 79.01 C8.52 72.85, 2.18 65.92, 0 59.03 C-2.17 52.14, -0.72 44.38, 3.57 37.67 C7.86 30.95, 16.07 23.98, 25.73 18.76 C35.39 13.54, 48.11 9.54, 61.52 6.36 C74.92 3.18, 90.9 0.18, 106.17 -0.32 C121.43 -0.83, 145.26 2.35, 153.09 3.35 C160.92 4.34, 153.63 4.97, 153.15 5.65" stroke="#1e1e1e" stroke-width="2" fill="none"></path></g><g stroke-linecap="round" transform="translate(521.0148836630658 599.996542456207) rotate(0 86.34225625680142 50.60229924579431)"><path d="M25.3 0 C57.17 2.69, 89.9 1.15, 147.38 0 M25.3 0 C64.83 0.02, 104.26 -1.1, 147.38 0 M147.38 0 C165.3 0.93, 172.96 7.46, 172.68 25.3 M147.38 0 C164.13 2.07, 174.54 6.89, 172.68 25.3 M172.68 25.3 C171.8 36.41, 172.93 52.39, 172.68 75.9 M172.68 25.3 C172.61 36.37, 172.73 46.67, 172.68 75.9 M172.68 75.9 C172.69 94.29, 163.9 99.57, 147.38 101.2 M172.68 75.9 C171.15 94.15, 166.04 100.59, 147.38 101.2 M147.38 101.2 C111.11 99.28, 75.75 102.03, 25.3 101.2 M147.38 101.2 C118.23 101.83, 88.38 101.87, 25.3 101.2 M25.3 101.2 C6.84 102.64, 0.49 91.63, 0 75.9 M25.3 101.2 C9.62 101.69, 0.45 93.33, 0 75.9 M0 75.9 C-1.03 55.27, -1.19 37.76, 0 25.3 M0 75.9 C-0.02 59.98, 0.24 45.75, 0 25.3 M0 25.3 C1.06 8.18, 6.9 1.02, 25.3 0 M0 25.3 C2.14 7.36, 9.18 -2.28, 25.3 0" stroke="#1e1e1e" stroke-width="2" fill="none"></path></g><g stroke-linecap="round" transform="translate(520.768184003862 921.4252026828246) rotate(0 87.15059131036219 50.60229924579431)"><path d="M25.3 0 C67.74 0.15, 106.08 1.2, 149 0 M25.3 0 C73.68 -1.94, 123.75 -1.08, 149 0 M149 0 C164.43 1.38, 172.9 10.03, 174.3 25.3 M149 0 C164.46 -2.22, 172.08 9.77, 174.3 25.3 M174.3 25.3 C172.17 36.21, 172.09 47.89, 174.3 75.9 M174.3 25.3 C173.83 40.52, 174.98 58.01, 174.3 75.9 M174.3 75.9 C174.41 93.54, 166.7 100.78, 149 101.2 M174.3 75.9 C173.27 90.77, 164.91 102.07, 149 101.2 M149 101.2 C111.65 103.58, 77.18 102.88, 25.3 101.2 M149 101.2 C112.93 100.94, 74.7 100.19, 25.3 101.2 M25.3 101.2 C10.19 102.39, 1.33 93.29, 0 75.9 M25.3 101.2 C7.8 102.02, -1.44 92.88, 0 75.9 M0 75.9 C1.75 62.73, -0.06 47.27, 0 25.3 M0 75.9 C-0.83 57.33, 0.34 41.12, 0 25.3 M0 25.3 C-1.65 6.86, 8.74 -0.84, 25.3 0 M0 25.3 C2.01 9.24, 9.42 0.8, 25.3 0" stroke="#1e1e1e" stroke-width="2" fill="none"></path></g><g stroke-linecap="round" transform="translate(203.33133422031517 502.64072109464036) rotate(0 60.331188997579034 53.232012634326395)"><path d="M85.81 5.18 C94.28 7.88, 103.55 14.19, 109.14 20.63 C114.73 27.08, 118.06 35.6, 119.33 43.84 C120.6 52.07, 119.56 62.26, 116.78 70.06 C114.01 77.87, 109.15 84.96, 102.67 90.69 C96.2 96.42, 86.8 101.81, 77.92 104.44 C69.04 107.07, 58.77 108.05, 49.42 106.48 C40.07 104.91, 29.21 100.22, 21.82 95.04 C14.43 89.85, 8.69 83.02, 5.08 75.38 C1.46 67.75, -0.53 57.52, 0.13 49.22 C0.8 40.92, 4.11 32.55, 9.06 25.58 C14.01 18.61, 21.7 11.63, 29.86 7.4 C38.01 3.18, 48.05 0.38, 57.99 0.23 C67.92 0.07, 83.91 5.14, 89.47 6.48 C95.02 7.82, 91.83 7.56, 91.3 8.27 M72.45 1.09 C81.28 2.15, 90.44 7.22, 97.72 12.24 C104.99 17.25, 112.36 23.49, 116.11 31.18 C119.86 38.86, 121.11 49.83, 120.24 58.34 C119.37 66.84, 115.74 75.22, 110.9 82.21 C106.06 89.2, 99.18 96.16, 91.18 100.28 C83.18 104.39, 72.36 106.64, 62.92 106.89 C53.48 107.13, 42.78 105.25, 34.51 101.75 C26.25 98.25, 18.89 92.36, 13.35 85.91 C7.8 79.47, 3.1 71.18, 1.24 63.09 C-0.63 55, -0.73 45.62, 2.15 37.38 C5.04 29.15, 11.84 19.76, 18.54 13.68 C25.23 7.61, 33.14 3.11, 42.33 0.91 C51.53 -1.29, 68.77 0.07, 73.7 0.47 C78.63 0.86, 72.4 2.4, 71.92 3.28" stroke="#1e1e1e" stroke-width="2" fill="none"></path></g><g stroke-linecap="round" transform="translate(267.0008420105215 547.0125417133139) rotate(0 60.331188997579034 53.232012634326395)"><path d="M33.61 5.69 C41 1.3, 51.29 -0.54, 60.32 -0.36 C69.35 -0.19, 79.47 2.88, 87.81 6.73 C96.15 10.58, 104.92 15.95, 110.38 22.73 C115.83 29.51, 119.4 38.97, 120.53 47.42 C121.67 55.88, 120.73 65.78, 117.18 73.47 C113.62 81.17, 106.34 88.2, 99.2 93.59 C92.07 98.99, 83.32 104, 74.36 105.83 C65.4 107.67, 54.5 106.7, 45.44 104.6 C36.38 102.49, 26.93 98.66, 20.01 93.19 C13.1 87.72, 7.09 79.53, 3.94 71.76 C0.8 63.99, -0.16 54.72, 1.15 46.59 C2.45 38.45, 4.56 30.41, 11.78 22.93 C19 15.45, 37 5.35, 44.46 1.7 C51.93 -1.96, 56.32 0.16, 56.58 1 M33.22 5.51 C40.87 1.18, 53.1 -1.59, 62.55 -1.22 C71.99 -0.86, 81.86 3.33, 89.88 7.68 C97.91 12.04, 105.48 17.94, 110.69 24.9 C115.91 31.87, 120.25 41.24, 121.18 49.45 C122.1 57.67, 119.95 66.65, 116.25 74.19 C112.55 81.72, 105.98 89.35, 98.96 94.66 C91.94 99.98, 83.23 104.2, 74.14 106.06 C65.06 107.93, 53.83 108.04, 44.46 105.86 C35.08 103.68, 24.77 99.06, 17.89 92.97 C11.02 86.89, 6.27 77.54, 3.19 69.36 C0.12 61.19, -2.22 51.99, -0.58 43.92 C1.06 35.85, 7.33 27.2, 13.05 20.95 C18.77 14.71, 30.23 9, 33.74 6.46 C37.25 3.92, 33.41 4.96, 34.12 5.71" stroke="#1e1e1e" stroke-width="2" fill="none"></path></g><g stroke-linecap="round" transform="translate(868.4861047224209 602.2824510005298) rotate(0 111.02009557054049 51.880413437625776)"><path d="M75.26 2.47 C88.18 -0.49, 106.21 -0.23, 121.08 0.39 C135.96 1.01, 151.2 2.65, 164.51 6.19 C177.82 9.73, 191.79 15.76, 200.94 21.62 C210.08 27.47, 216.29 34.53, 219.38 41.34 C222.47 48.14, 222.38 55.64, 219.48 62.43 C216.57 69.21, 210.43 76.26, 201.95 82.03 C193.48 87.8, 181.65 93.42, 168.62 97.06 C155.58 100.69, 138.68 103.08, 123.74 103.85 C108.8 104.62, 93.26 103.98, 78.97 101.66 C64.68 99.35, 49.3 94.67, 37.98 89.96 C26.65 85.25, 17.41 79.63, 11.02 73.4 C4.63 67.17, -0.16 59.71, -0.35 52.58 C-0.55 45.44, 3.84 37.11, 9.84 30.58 C15.85 24.06, 23.22 18.32, 35.66 13.44 C48.1 8.55, 74.89 3.09, 84.48 1.26 C94.08 -0.57, 92.68 1.54, 93.23 2.47 M62.73 4.86 C74.62 1.41, 92.82 0.85, 108.09 0.67 C123.36 0.49, 140.13 1.34, 154.35 3.76 C168.57 6.19, 183.11 9.88, 193.42 15.21 C203.74 20.55, 211.57 28.78, 216.24 35.78 C220.9 42.78, 222.69 50.23, 221.42 57.21 C220.16 64.19, 216 71.65, 208.66 77.67 C201.32 83.69, 189.33 89.29, 177.39 93.32 C165.46 97.34, 151.67 100.25, 137.06 101.82 C122.45 103.39, 104.5 103.92, 89.76 102.73 C75.02 101.54, 60.74 98.76, 48.61 94.69 C36.47 90.62, 24.93 84.29, 16.94 78.32 C8.95 72.36, 2.5 65.83, 0.64 58.91 C-1.22 51.99, 1.26 43.5, 5.79 36.81 C10.33 30.12, 17.92 24.04, 27.83 18.77 C37.74 13.5, 58.91 7.1, 65.23 5.18 C71.56 3.25, 65.01 6.27, 65.77 7.2" stroke="#1e1e1e" stroke-width="2" fill="none"></path></g><g stroke-linecap="round" transform="translate(865.5729491722507 924.5351930674658) rotate(0 111.02009557054055 51.88041343762575)"><path d="M59.37 6.04 C71.36 2.34, 89.15 0.83, 104.37 0.52 C119.59 0.21, 136.66 1.68, 150.67 4.2 C164.68 6.73, 177.99 11.04, 188.44 15.66 C198.9 20.27, 207.82 25.54, 213.39 31.89 C218.96 38.24, 222.51 46.49, 221.87 53.78 C221.23 61.07, 216.26 69.45, 209.55 75.65 C202.84 81.86, 193.15 86.58, 181.62 91 C170.09 95.41, 154.94 100.01, 140.38 102.15 C125.82 104.29, 109.23 104.77, 94.29 103.85 C79.34 102.92, 63.35 100.61, 50.71 96.61 C38.07 92.61, 26.5 85.83, 18.46 79.83 C10.42 73.83, 5.09 67.52, 2.46 60.62 C-0.17 53.71, -0.84 45.27, 2.67 38.4 C6.19 31.53, 11.58 25.45, 23.55 19.4 C35.51 13.35, 63.46 4.94, 74.48 2.1 C85.49 -0.74, 89.15 1.44, 89.65 2.37 M163.02 5.31 C176.39 7.71, 189.72 14.25, 198.75 20.06 C207.78 25.87, 213.77 33.2, 217.19 40.18 C220.61 47.15, 221.59 55.31, 219.26 61.92 C216.94 68.54, 211.55 74.12, 203.24 79.87 C194.93 85.62, 182.1 92.34, 169.41 96.43 C156.73 100.52, 141.96 103.42, 127.13 104.39 C112.31 105.36, 94.91 104.43, 80.47 102.26 C66.03 100.09, 52.15 95.78, 40.48 91.38 C28.81 86.97, 16.99 82.22, 10.44 75.82 C3.89 69.42, 1.61 59.95, 1.19 52.97 C0.78 46, 2.73 40.14, 7.92 33.95 C13.12 27.77, 21.58 21.18, 32.37 15.88 C43.17 10.58, 58.62 4.99, 72.68 2.14 C86.74 -0.71, 101.7 -1.7, 116.74 -1.22 C131.79 -0.74, 155.32 3.78, 162.97 5.03 C170.62 6.29, 163.72 5.49, 162.66 6.32" stroke="#1e1e1e" stroke-width="2" fill="none"></path></g><g transform="translate(541.3619561620576 258.9717965185357) rotate(0 65.625 33.6)"><text x="65.625" y="0" font-family="Cascadia, Segoe UI Emoji" font-size="28px" fill="#1e1e1e" text-anchor="middle" style="white-space: pre;" direction="ltr" dominant-baseline="text-before-edge">function</text><text x="65.625" y="33.6" font-family="Cascadia, Segoe UI Emoji" font-size="28px" fill="#1e1e1e" text-anchor="middle" style="white-space: pre;" direction="ltr" dominant-baseline="text-before-edge"></text></g><g transform="translate(540.5773755576374 606.2385374175889) rotate(0 65.625 33.599999999999994)"><text x="65.625" y="0" font-family="Cascadia, Segoe UI Emoji" font-size="28px" fill="#1e1e1e" text-anchor="middle" style="white-space: pre;" direction="ltr" dominant-baseline="text-before-edge">function</text><text x="65.625" y="33.6" font-family="Cascadia, Segoe UI Emoji" font-size="28px" fill="#1e1e1e" text-anchor="middle" style="white-space: pre;" direction="ltr" dominant-baseline="text-before-edge"></text></g><g transform="translate(544.797514408695 925.6201153657086) rotate(0 65.625 33.60000000000002)"><text x="65.625" y="0" font-family="Cascadia, Segoe UI Emoji" font-size="28px" fill="#1e1e1e" text-anchor="middle" style="white-space: pre;" direction="ltr" dominant-baseline="text-before-edge">function</text><text x="65.625" y="33.6" font-family="Cascadia, Segoe UI Emoji" font-size="28px" fill="#1e1e1e" text-anchor="middle" style="white-space: pre;" direction="ltr" dominant-baseline="text-before-edge"></text></g><g transform="translate(565.5856691554986 301.7287810856721) rotate(0 41.015625 16.8)"><text x="41.015625" y="0" font-family="Cascadia, Segoe UI Emoji" font-size="28px" fill="#e03131" text-anchor="middle" style="white-space: pre;" direction="ltr" dominant-baseline="text-before-edge">Foo()</text></g><g transform="translate(541.4906891895826 651.4877321597914) rotate(0 65.625 16.80000000000001)"><text x="65.625" y="0" font-family="Cascadia, Segoe UI Emoji" font-size="28px" fill="#1971c2" text-anchor="middle" style="white-space: pre;" direction="ltr" dominant-baseline="text-before-edge">Object()</text></g><g transform="translate(527.6669122178416 973.4990234964432) rotate(0 82.03125 16.80000000000001)"><text x="82.03125" y="0" font-family="Cascadia, Segoe UI Emoji" font-size="28px" fill="#1e1e1e" text-anchor="middle" style="white-space: pre;" direction="ltr" dominant-baseline="text-before-edge">Function()</text></g><g transform="translate(531.5816622908344 69.69987821130476) rotate(0 73.828125 16.799999999999997)"><text x="73.828125" y="0" font-family="Cascadia, Segoe UI Emoji" font-size="28px" fill="#1e1e1e" text-anchor="middle" style="white-space: pre;" direction="ltr" dominant-baseline="text-before-edge">Functions</text></g><g transform="translate(892.157785297786 68.32648030490884) rotate(0 82.03125 16.799999999999997)"><text x="82.03125" y="0" font-family="Cascadia, Segoe UI Emoji" font-size="28px" fill="#1e1e1e" text-anchor="middle" style="white-space: pre;" direction="ltr" dominant-baseline="text-before-edge">Prototypes</text></g><g transform="translate(885.445356110846 104.58608127891921) rotate(0 90.234375 16.799999999999997)"><text x="90.234375" y="0" font-family="Cascadia, Segoe UI Emoji" font-size="28px" fill="#343a40" text-anchor="middle" style="white-space: pre;" direction="ltr" dominant-baseline="text-before-edge">(instances)</text></g><g transform="translate(213.3872931792091 154.55129315841432) rotate(0 82.03125 12)"><text x="82.03125" y="0" font-family="Cascadia, Segoe UI Emoji" font-size="20px" fill="#343a40" text-anchor="middle" style="white-space: pre;" direction="ltr" dominant-baseline="text-before-edge">.. = new Foo()</text></g><g transform="translate(209.68733624164156 458.366369402552) rotate(0 99.609375 12)"><text x="99.609375" y="0" font-family="Cascadia, Segoe UI Emoji" font-size="20px" fill="#343a40" text-anchor="middle" style="white-space: pre;" direction="ltr" dominant-baseline="text-before-edge">.. = new Object()</text></g><g stroke-linecap="round"><g transform="translate(366.9456975614962 272.87016988776986) rotate(0 269.432770352769 -49.98817456224495)"><path d="M-0.26 0.1 C40.37 -16.59, 152.89 -98.75, 242.81 -100.93 C332.72 -103.1, 489.84 -27.44, 539.22 -12.96" stroke="#343a40" stroke-width="2.5" fill="none" stroke-dasharray="8 10"></path></g><g transform="translate(366.9456975614962 272.87016988776986) rotate(0 269.432770352769 -49.98817456224495)"><path d="M514.22 -13.2 C519.85 -11.29, 523.57 -12.45, 539.22 -12.96" stroke="#343a40" stroke-width="2.5" fill="none"></path></g><g transform="translate(366.9456975614962 272.87016988776986) rotate(0 269.432770352769 -49.98817456224495)"><path d="M520.23 -29.21 C524.43 -23.81, 526.84 -21.47, 539.22 -12.96" stroke="#343a40" stroke-width="2.5" fill="none"></path></g></g><mask></mask><g transform="translate(320.3686041337876 297.55063366596863) rotate(0 16.40625 16.8)"><text x="16.40625" y="0" font-family="Cascadia, Segoe UI Emoji" font-size="28px" fill="#e03131" text-anchor="middle" style="white-space: pre;" direction="ltr" dominant-baseline="text-before-edge">f1</text></g><g transform="translate(233.11040978058134 252.40116857323125) rotate(0 16.40625 16.8)"><text x="16.40625" y="0" font-family="Cascadia, Segoe UI Emoji" font-size="28px" fill="#1e1e1e" text-anchor="middle" style="white-space: pre;" direction="ltr" dominant-baseline="text-before-edge">f2</text></g><g transform="translate(237.87643723923816 531.7071742230635) rotate(0 16.40625 16.799999999999997)"><text x="16.40625" y="0" font-family="Cascadia, Segoe UI Emoji" font-size="28px" fill="#1e1e1e" text-anchor="middle" style="white-space: pre;" direction="ltr" dominant-baseline="text-before-edge">o2</text></g><g transform="translate(316.3059331503068 585.650416725945) rotate(0 16.40625 16.80000000000001)"><text x="16.40625" y="0" font-family="Cascadia, Segoe UI Emoji" font-size="28px" fill="#1971c2" text-anchor="middle" style="white-space: pre;" direction="ltr" dominant-baseline="text-before-edge">o1</text></g><g transform="translate(562.7691026025052 141.46571336278492) rotate(0 52.734375 12)"><text x="52.734375" y="0" font-family="Cascadia, Segoe UI Emoji" font-size="20px" fill="#343a40" text-anchor="middle" style="white-space: pre;" direction="ltr" dominant-baseline="text-before-edge">__proto__</text></g><g transform="translate(907.546693988206 263.5980824485896) rotate(0 73.828125 33.6)"><text x="73.828125" y="0" font-family="Cascadia, Segoe UI Emoji" font-size="28px" fill="#1e1e1e" text-anchor="middle" style="white-space: pre;" direction="ltr" dominant-baseline="text-before-edge">Foo.</text><text x="73.828125" y="33.6" font-family="Cascadia, Segoe UI Emoji" font-size="28px" fill="#1e1e1e" text-anchor="middle" style="white-space: pre;" direction="ltr" dominant-baseline="text-before-edge">prototype</text></g><g transform="translate(905.9982599570344 616.5789273884633) rotate(0 73.828125 33.599999999999994)"><text x="73.828125" y="0" font-family="Cascadia, Segoe UI Emoji" font-size="28px" fill="#1e1e1e" text-anchor="middle" style="white-space: pre;" direction="ltr" dominant-baseline="text-before-edge">Object.</text><text x="73.828125" y="33.6" font-family="Cascadia, Segoe UI Emoji" font-size="28px" fill="#1e1e1e" text-anchor="middle" style="white-space: pre;" direction="ltr" dominant-baseline="text-before-edge">prototype</text></g><g transform="translate(908.7591965685472 941.1621938955354) rotate(0 73.828125 33.60000000000002)"><text x="73.828125" y="0" font-family="Cascadia, Segoe UI Emoji" font-size="28px" fill="#1e1e1e" text-anchor="middle" style="white-space: pre;" direction="ltr" dominant-baseline="text-before-edge">Function.</text><text x="73.828125" y="33.6" font-family="Cascadia, Segoe UI Emoji" font-size="28px" fill="#1e1e1e" text-anchor="middle" style="white-space: pre;" direction="ltr" dominant-baseline="text-before-edge">prototype</text></g><g stroke-linecap="round"><g transform="translate(694.0432010208774 296.0914314264239) rotate(0 85.84360800947513 -9.55305063299059)"><path d="M0 0 C13.76 -3.46, 53.94 -21, 82.55 -20.73 C111.16 -20.46, 156.83 -2.1, 171.69 1.63 M0 0 C13.76 -3.46, 53.94 -21, 82.55 -20.73 C111.16 -20.46, 156.83 -2.1, 171.69 1.63" stroke="#1e1e1e" stroke-width="2" fill="none"></path></g><g transform="translate(694.0432010208774 296.0914314264239) rotate(0 85.84360800947513 -9.55305063299059)"><path d="M146.71 2.73 C156.56 2.29, 166.4 1.86, 171.69 1.63 M146.71 2.73 C153.72 2.42, 160.72 2.11, 171.69 1.63" stroke="#1e1e1e" stroke-width="2" fill="none"></path></g><g transform="translate(694.0432010208774 296.0914314264239) rotate(0 85.84360800947513 -9.55305063299059)"><path d="M151.85 -13.58 C159.67 -7.59, 167.49 -1.59, 171.69 1.63 M151.85 -13.58 C157.41 -9.32, 162.97 -5.05, 171.69 1.63" stroke="#1e1e1e" stroke-width="2" fill="none"></path></g></g><mask></mask><g transform="translate(728.5512735873262 248.24633775525726) rotate(0 52.734375 12)"><text x="52.734375" y="0" font-family="Cascadia, Segoe UI Emoji" font-size="20px" fill="#343a40" text-anchor="middle" style="white-space: pre;" direction="ltr" dominant-baseline="text-before-edge">prototype</text></g><g stroke-linecap="round"><g transform="translate(869.9558048198044 307.633826119801) rotate(0 -88.4733213980071 7.595200146119424)"><path d="M0 0 C-14.91 2.53, -59.96 15.02, -89.45 15.19 C-118.94 15.36, -162.36 3.37, -176.95 1.01 M0 0 C-14.91 2.53, -59.96 15.02, -89.45 15.19 C-118.94 15.36, -162.36 3.37, -176.95 1.01" stroke="#1e1e1e" stroke-width="2" fill="none"></path></g><g transform="translate(869.9558048198044 307.633826119801) rotate(0 -88.4733213980071 7.595200146119424)"><path d="M-152.2 -2.55 C-158.2 -1.68, -164.19 -0.82, -176.95 1.01 M-152.2 -2.55 C-160.67 -1.33, -169.14 -0.11, -176.95 1.01" stroke="#1e1e1e" stroke-width="2" fill="none"></path></g><g transform="translate(869.9558048198044 307.633826119801) rotate(0 -88.4733213980071 7.595200146119424)"><path d="M-155.71 14.19 C-160.85 11, -166 7.8, -176.95 1.01 M-155.71 14.19 C-162.98 9.68, -170.25 5.17, -176.95 1.01" stroke="#1e1e1e" stroke-width="2" fill="none"></path></g></g><mask></mask><g transform="translate(725.2728012894411 322.07268108594025) rotate(0 64.453125 12)"><text x="64.453125" y="0" font-family="Cascadia, Segoe UI Emoji" font-size="20px" fill="#343a40" text-anchor="middle" style="white-space: pre;" direction="ltr" dominant-baseline="text-before-edge">constructor</text></g><g stroke-linecap="round"><g transform="translate(694.943904383523 648.0793558207731) rotate(0 87.21741431525811 -8.82856157054718)"><path d="M0 0 C13.76 -3.46, 53.48 -21.25, 82.55 -20.73 C111.62 -20.22, 159.12 -0.89, 174.43 3.08 M0 0 C13.76 -3.46, 53.48 -21.25, 82.55 -20.73 C111.62 -20.22, 159.12 -0.89, 174.43 3.08" stroke="#1e1e1e" stroke-width="2" fill="none"></path></g><g transform="translate(694.943904383523 648.0793558207731) rotate(0 87.21741431525811 -8.82856157054718)"><path d="M149.45 4.01 C158.76 3.67, 168.07 3.32, 174.43 3.08 M149.45 4.01 C157.64 3.71, 165.83 3.4, 174.43 3.08" stroke="#1e1e1e" stroke-width="2" fill="none"></path></g><g transform="translate(694.943904383523 648.0793558207731) rotate(0 87.21741431525811 -8.82856157054718)"><path d="M154.69 -12.26 C162.05 -6.55, 169.4 -0.83, 174.43 3.08 M154.69 -12.26 C161.16 -7.24, 167.63 -2.21, 174.43 3.08" stroke="#1e1e1e" stroke-width="2" fill="none"></path></g></g><mask></mask><g transform="translate(729.4519769499718 600.2342621496064) rotate(0 52.734375 12)"><text x="52.734375" y="0" font-family="Cascadia, Segoe UI Emoji" font-size="20px" fill="#343a40" text-anchor="middle" style="white-space: pre;" direction="ltr" dominant-baseline="text-before-edge">prototype</text></g><g stroke-linecap="round"><g transform="translate(867.297734375215 662.3721892678243) rotate(0 -86.69393449438962 5.348658568690894)"><path d="M0 0 C-14.32 2.07, -57 12.73, -85.89 12.44 C-114.79 12.15, -158.81 0.62, -173.39 -1.74 M0 0 C-14.32 2.07, -57 12.73, -85.89 12.44 C-114.79 12.15, -158.81 0.62, -173.39 -1.74" stroke="#1e1e1e" stroke-width="2" fill="none"></path></g><g transform="translate(867.297734375215 662.3721892678243) rotate(0 -86.69393449438962 5.348658568690894)"><path d="M-148.66 -5.43 C-156.48 -4.26, -164.3 -3.1, -173.39 -1.74 M-148.66 -5.43 C-155.35 -4.43, -162.04 -3.43, -173.39 -1.74" stroke="#1e1e1e" stroke-width="2" fill="none"></path></g><g transform="translate(867.297734375215 662.3721892678243) rotate(0 -86.69393449438962 5.348658568690894)"><path d="M-152.08 11.33 C-158.82 7.19, -165.56 3.06, -173.39 -1.74 M-152.08 11.33 C-157.84 7.79, -163.61 4.25, -173.39 -1.74" stroke="#1e1e1e" stroke-width="2" fill="none"></path></g></g><mask></mask><g transform="translate(726.1735046520866 674.0606054802894) rotate(0 64.453125 12)"><text x="64.453125" y="0" font-family="Cascadia, Segoe UI Emoji" font-size="20px" fill="#343a40" text-anchor="middle" style="white-space: pre;" direction="ltr" dominant-baseline="text-before-edge">constructor</text></g><g stroke-linecap="round"><g transform="translate(696.2981280446834 965.8232679460943) rotate(0 84.9539145576664 -8.288058763457116)"><path d="M0 0 C15.71 -3.75, 65.92 -23.47, 94.24 -22.49 C122.56 -21.5, 157.3 1.18, 169.91 5.91 M0 0 C15.71 -3.75, 65.92 -23.47, 94.24 -22.49 C122.56 -21.5, 157.3 1.18, 169.91 5.91" stroke="#1e1e1e" stroke-width="2" fill="none"></path></g><g transform="translate(696.2981280446834 965.8232679460943) rotate(0 84.9539145576664 -8.288058763457116)"><path d="M145.04 3.34 C152.9 4.16, 160.76 4.97, 169.91 5.91 M145.04 3.34 C152.96 4.16, 160.89 4.98, 169.91 5.91" stroke="#1e1e1e" stroke-width="2" fill="none"></path></g><g transform="translate(696.2981280446834 965.8232679460943) rotate(0 84.9539145576664 -8.288058763457116)"><path d="M152.51 -12.04 C158.01 -6.37, 163.51 -0.69, 169.91 5.91 M152.51 -12.04 C158.05 -6.32, 163.6 -0.6, 169.91 5.91" stroke="#1e1e1e" stroke-width="2" fill="none"></path></g></g><mask></mask><g transform="translate(729.8141530453986 915.2805409739958) rotate(0 52.734375 12)"><text x="52.734375" y="0" font-family="Cascadia, Segoe UI Emoji" font-size="20px" fill="#343a40" text-anchor="middle" style="white-space: pre;" direction="ltr" dominant-baseline="text-before-edge">prototype</text></g><g stroke-linecap="round"><g transform="translate(866.7554245923168 987.8530226200841) rotate(0 -85.7535411657392 9.993960662205495)"><path d="M0 0 C-14.71 3.33, -59.69 19.78, -88.27 19.99 C-116.85 20.2, -157.63 4.39, -171.51 1.28 M0 0 C-14.71 3.33, -59.69 19.78, -88.27 19.99 C-116.85 20.2, -157.63 4.39, -171.51 1.28" stroke="#1e1e1e" stroke-width="2" fill="none"></path></g><g transform="translate(866.7554245923168 987.8530226200841) rotate(0 -85.7535411657392 9.993960662205495)"><path d="M-146.56 -0.35 C-152.18 0.02, -157.79 0.38, -171.51 1.28 M-146.56 -0.35 C-152.39 0.03, -158.23 0.41, -171.51 1.28" stroke="#1e1e1e" stroke-width="2" fill="none"></path></g><g transform="translate(866.7554245923168 987.8530226200841) rotate(0 -85.7535411657392 9.993960662205495)"><path d="M-151.35 16.07 C-155.89 12.74, -160.43 9.41, -171.51 1.28 M-151.35 16.07 C-156.07 12.61, -160.78 9.15, -171.51 1.28" stroke="#1e1e1e" stroke-width="2" fill="none"></path></g></g><mask></mask><g transform="translate(722.89817300649 1010.1269637600479) rotate(0 64.453125 12)"><text x="64.453125" y="0" font-family="Cascadia, Segoe UI Emoji" font-size="20px" fill="#343a40" text-anchor="middle" style="white-space: pre;" direction="ltr" dominant-baseline="text-before-edge">constructor</text></g><g stroke-linecap="round"><g transform="translate(1093.9485975188372 651.9478164342416) rotate(0 49.161468257466936 -83.14040961607378)"><path d="M0.61 -1.15 C16.39 -5.59, 78.91 -0.15, 95.27 -27.5 C111.62 -54.85, 98.38 -142.12, 98.74 -165.24" stroke="#1e1e1e" stroke-width="2.5" fill="none" stroke-dasharray="8 10"></path></g><g transform="translate(1093.9485975188372 651.9478164342416) rotate(0 49.161468257466936 -83.14040961607378)"><path d="M108.74 -142.33 C103.52 -148.98, 100.78 -157.47, 98.74 -165.24" stroke="#1e1e1e" stroke-width="2.5" fill="none"></path></g><g transform="translate(1093.9485975188372 651.9478164342416) rotate(0 49.161468257466936 -83.14040961607378)"><path d="M91.68 -141.26 C92.38 -148.37, 95.56 -157.23, 98.74 -165.24" stroke="#1e1e1e" stroke-width="2.5" fill="none"></path></g></g><mask></mask><g transform="translate(1090.580399004154 568.5938767062889) rotate(0 52.734375 12)"><text x="52.734375" y="0" font-family="Cascadia, Segoe UI Emoji" font-size="20px" fill="#343a40" text-anchor="middle" style="white-space: pre;" direction="ltr" dominant-baseline="text-before-edge">__proto__</text></g><g stroke-linecap="round" transform="translate(1151.5923349097727 431.89696935354704) rotate(0 43.623848247683895 26.803655526025494)"><path d="M13.4 0 C37.24 0, 61.07 0, 73.85 0 C82.78 0, 87.25 4.47, 87.25 13.4 C87.25 20.02, 87.25 26.63, 87.25 40.21 C87.25 49.14, 82.78 53.61, 73.85 53.61 C51.13 53.61, 28.42 53.61, 13.4 53.61 C4.47 53.61, 0 49.14, 0 40.21 C0 34.63, 0 29.05, 0 13.4 C0 4.47, 4.47 0, 13.4 0" stroke="none" stroke-width="0" fill="#ffd8a8"></path><path d="M13.4 0 C28.19 0, 42.98 0, 73.85 0 M13.4 0 C26.35 0, 39.31 0, 73.85 0 M73.85 0 C82.78 0, 87.25 4.47, 87.25 13.4 M73.85 0 C82.78 0, 87.25 4.47, 87.25 13.4 M87.25 13.4 C87.25 19.14, 87.25 24.88, 87.25 40.21 M87.25 13.4 C87.25 21.37, 87.25 29.34, 87.25 40.21 M87.25 40.21 C87.25 49.14, 82.78 53.61, 73.85 53.61 M87.25 40.21 C87.25 49.14, 82.78 53.61, 73.85 53.61 M73.85 53.61 C60.1 53.61, 46.36 53.61, 13.4 53.61 M73.85 53.61 C57.88 53.61, 41.91 53.61, 13.4 53.61 M13.4 53.61 C4.47 53.61, 0 49.14, 0 40.21 M13.4 53.61 C4.47 53.61, 0 49.14, 0 40.21 M0 40.21 C0 33.82, 0 27.43, 0 13.4 M0 40.21 C0 33.93, 0 27.65, 0 13.4 M0 13.4 C0 4.47, 4.47 0, 13.4 0 M0 13.4 C0 4.47, 4.47 0, 13.4 0" stroke="transparent" stroke-width="2" fill="none"></path></g><g transform="translate(1162.4036831574565 441.90062487957255) rotate(0 32.8125 16.800000000000004)"><text x="32.8125" y="0" font-family="Cascadia, Segoe UI Emoji" font-size="28px" fill="#1e1e1e" text-anchor="middle" style="white-space: pre;" direction="ltr" dominant-baseline="text-before-edge">null</text></g><g stroke-linecap="round"><g transform="translate(1079.7817383658473 955.2939165341271) rotate(0 16.744083252329688 -126.79050250835382)"><path d="M-0.36 0.92 C11.74 -23.86, 79.69 -106.77, 73.17 -149.24 C66.65 -191.72, -20.35 -236.61, -39.45 -253.94" stroke="#1e1e1e" stroke-width="2.5" fill="none" stroke-dasharray="8 10"></path></g><g transform="translate(1079.7817383658473 955.2939165341271) rotate(0 16.744083252329688 -126.79050250835382)"><path d="M-15.33 -247.39 C-22.13 -250.76, -32.87 -250.59, -39.45 -253.94" stroke="#1e1e1e" stroke-width="2.5" fill="none"></path></g><g transform="translate(1079.7817383658473 955.2939165341271) rotate(0 16.744083252329688 -126.79050250835382)"><path d="M-25.18 -233.41 C-28.51 -241.61, -35.83 -246.28, -39.45 -253.94" stroke="#1e1e1e" stroke-width="2.5" fill="none"></path></g></g><mask></mask><g transform="translate(1045.1351724214985 806.0554210120547) rotate(0 52.734375 12)"><text x="52.734375" y="0" font-family="Cascadia, Segoe UI Emoji" font-size="20px" fill="#343a40" text-anchor="middle" style="white-space: pre;" direction="ltr" dominant-baseline="text-before-edge">__proto__</text></g><g stroke-linecap="round"><g transform="translate(375.07103952845773 566.799691506564) rotate(0 253.53638912089417 -7.912760345732579)"><path d="M0.96 1.04 C51.73 -10.94, 219.45 -82.17, 303.89 -72.76 C388.34 -63.35, 473.8 35.71, 507.63 57.51" stroke="#1e1e1e" stroke-width="2.5" fill="none" stroke-dasharray="8 10"></path></g><g transform="translate(375.07103952845773 566.799691506564) rotate(0 253.53638912089417 -7.912760345732579)"><path d="M484.12 48.99 C491.47 50.8, 495.97 53.84, 507.63 57.51" stroke="#1e1e1e" stroke-width="2.5" fill="none"></path></g><g transform="translate(375.07103952845773 566.799691506564) rotate(0 253.53638912089417 -7.912760345732579)"><path d="M495.1 35.88 C499.7 40.95, 501.55 47.16, 507.63 57.51" stroke="#1e1e1e" stroke-width="2.5" fill="none"></path></g></g><mask></mask><g stroke-linecap="round"><g transform="translate(972.8243137787874 355.12122020412875) rotate(0 -26.5936983692564 122.35085871693988)"><path d="M0.32 -0.23 C-8.63 21.29, -52.56 87.75, -54.2 128.64 C-55.84 169.53, -16.99 225.72, -9.52 245.09" stroke="#1e1e1e" stroke-width="2.5" fill="none" stroke-dasharray="8 10"></path></g><g transform="translate(972.8243137787874 355.12122020412875) rotate(0 -26.5936983692564 122.35085871693988)"><path d="M-27.82 228.05 C-23.56 230.71, -18.2 235.62, -9.52 245.09" stroke="#1e1e1e" stroke-width="2.5" fill="none"></path></g><g transform="translate(972.8243137787874 355.12122020412875) rotate(0 -26.5936983692564 122.35085871693988)"><path d="M-12.58 220.28 C-12.29 224.98, -10.86 231.89, -9.52 245.09" stroke="#1e1e1e" stroke-width="2.5" fill="none"></path></g></g><mask></mask><g transform="translate(925.6852970066823 464.02996370639585) rotate(0 52.734375 12)"><text x="52.734375" y="0" font-family="Cascadia, Segoe UI Emoji" font-size="20px" fill="#343a40" text-anchor="middle" style="white-space: pre;" direction="ltr" dominant-baseline="text-before-edge">__proto__</text></g><g transform="translate(596.0735565949918 464.1664358582957) rotate(0 52.734375 12)"><text x="52.734375" y="0" font-family="Cascadia, Segoe UI Emoji" font-size="20px" fill="#343a40" text-anchor="middle" style="white-space: pre;" direction="ltr" dominant-baseline="text-before-edge">__proto__</text></g><g stroke-linecap="round"><g transform="translate(606.3808391408912 707.4657376128907) rotate(0 161.48854712889465 109.59238690451122)"><path d="M-0.49 0.79 C5.5 18.07, -17.38 67.21, 36.36 103.46 C90.09 139.7, 274 199.16, 321.91 218.28" stroke="#1e1e1e" stroke-width="2.5" fill="none" stroke-dasharray="8 10"></path></g><g transform="translate(606.3808391408912 707.4657376128907) rotate(0 161.48854712889465 109.59238690451122)"><path d="M296.91 218.29 C306.54 219.91, 313.56 216.61, 321.91 218.28" stroke="#1e1e1e" stroke-width="2.5" fill="none"></path></g><g transform="translate(606.3808391408912 707.4657376128907) rotate(0 161.48854712889465 109.59238690451122)"><path d="M302.75 202.22 C310.41 209.16, 315.49 211.2, 321.91 218.28" stroke="#1e1e1e" stroke-width="2.5" fill="none"></path></g></g><mask></mask><g transform="translate(723.5280486116276 824.883329045317) rotate(0 52.734375 12)"><text x="52.734375" y="0" font-family="Cascadia, Segoe UI Emoji" font-size="20px" fill="#343a40" text-anchor="middle" style="white-space: pre;" direction="ltr" dominant-baseline="text-before-edge">__proto__</text></g><g stroke-linecap="round" transform="translate(534.1538143191395 741.4397422089493) rotate(0 89.37351270765419 27.650581717807484)"><path d="M13.83 0 C63.35 0, 112.87 0, 164.92 0 C174.14 0, 178.75 4.61, 178.75 13.83 C178.75 23.25, 178.75 32.67, 178.75 41.48 C178.75 50.69, 174.14 55.3, 164.92 55.3 C115.28 55.3, 65.64 55.3, 13.83 55.3 C4.61 55.3, 0 50.69, 0 41.48 C0 35.19, 0 28.91, 0 13.83 C0 4.61, 4.61 0, 13.83 0" stroke="none" stroke-width="0" fill="#ffffff"></path><path d="M13.83 0 C55.62 0, 97.42 0, 164.92 0 M164.92 0 C174.14 0, 178.75 4.61, 178.75 13.83 M178.75 13.83 C178.75 20.98, 178.75 28.13, 178.75 41.48 M178.75 41.48 C178.75 50.69, 174.14 55.3, 164.92 55.3 M164.92 55.3 C129.3 55.3, 93.67 55.3, 13.83 55.3 M13.83 55.3 C4.61 55.3, 0 50.69, 0 41.48 M0 41.48 C0 34.78, 0 28.08, 0 13.83 M0 13.83 C0 4.61, 4.61 0, 13.83 0" stroke="transparent" stroke-width="2.5" fill="none" stroke-dasharray="8 10"></path></g><g transform="translate(548.5273270267937 749.8903239267568) rotate(0 75 19.19999999999999)"><text x="75" y="0" font-family="Cascadia, Segoe UI Emoji" font-size="16px" fill="#1e1e1e" text-anchor="middle" style="white-space: pre;" direction="ltr" dominant-baseline="text-before-edge">(Object created </text><text x="75" y="19.2" font-family="Cascadia, Segoe UI Emoji" font-size="16px" fill="#1e1e1e" text-anchor="middle" style="white-space: pre;" direction="ltr" dominant-baseline="text-before-edge">by Function)</text></g><g stroke-linecap="round"><g transform="translate(595.1008908934756 1027.7658781218763) rotate(0 183.48155930044987 55.92471316988917)"><path d="M-0.89 -0.61 C27.84 18.34, 112.41 110.82, 173.55 112.7 C234.69 114.59, 333.65 27.58, 365.95 10.69" stroke="#1e1e1e" stroke-width="2.5" fill="none" stroke-dasharray="8 10"></path></g><g transform="translate(595.1008908934756 1027.7658781218763) rotate(0 183.48155930044987 55.92471316988917)"><path d="M351.25 30.91 C356.22 22.04, 364.48 13.31, 365.95 10.69" stroke="#1e1e1e" stroke-width="2.5" fill="none"></path></g><g transform="translate(595.1008908934756 1027.7658781218763) rotate(0 183.48155930044987 55.92471316988917)"><path d="M341.69 16.73 C350.32 13.54, 362.37 10.43, 365.95 10.69" stroke="#1e1e1e" stroke-width="2.5" fill="none"></path></g></g><mask></mask><g transform="translate(716.2635309874197 1101.4126512968803) rotate(0 52.734375 12)"><text x="52.734375" y="0" font-family="Cascadia, Segoe UI Emoji" font-size="20px" fill="#343a40" text-anchor="middle" style="white-space: pre;" direction="ltr" dominant-baseline="text-before-edge">__proto__</text></g><g stroke-linecap="round"><g transform="translate(527.0222828111188 349.38911551821843) rotate(0 -196.38342658390638 344.67613648687995)"><path d="M0.48 0.87 C-65.08 27.95, -359.62 47.23, -392.87 162.09 C-426.12 276.96, -231.27 602.3, -199.02 690.06" stroke="#1e1e1e" stroke-width="2.5" fill="none" stroke-dasharray="8 10"></path></g></g><mask></mask><g stroke-linecap="round"><g transform="translate(324.765304766599 1037.3976626886567) rotate(0 344.60268140499863 104.03639564351101)"><path d="M1.07 0.92 C75.91 36.44, 335.61 214.23, 450.1 213.37 C564.59 212.52, 648.05 32.2, 688.01 -4.19" stroke="#1e1e1e" stroke-width="2.5" fill="none" stroke-dasharray="8 10"></path></g><g transform="translate(324.765304766599 1037.3976626886567) rotate(0 344.60268140499863 104.03639564351101)"><path d="M680.7 19.71 C685.03 10.75, 686.9 -0.96, 688.01 -4.19" stroke="#1e1e1e" stroke-width="2.5" fill="none"></path></g><g transform="translate(324.765304766599 1037.3976626886567) rotate(0 344.60268140499863 104.03639564351101)"><path d="M667.04 9.43 C676.71 4.34, 683.89 -3.36, 688.01 -4.19" stroke="#1e1e1e" stroke-width="2.5" fill="none"></path></g></g><mask></mask><g stroke-linecap="round" transform="translate(236.75126464902428 1011.7206782444782) rotate(0 89.37351270765419 27.650581717807484)"><path d="M13.83 0 C65.54 0, 117.26 0, 164.92 0 C174.14 0, 178.75 4.61, 178.75 13.83 C178.75 24.65, 178.75 35.47, 178.75 41.48 C178.75 50.69, 174.14 55.3, 164.92 55.3 C107.71 55.3, 50.5 55.3, 13.83 55.3 C4.61 55.3, 0 50.69, 0 41.48 C0 32.06, 0 22.64, 0 13.83 C0 4.61, 4.61 0, 13.83 0" stroke="none" stroke-width="0" fill="#eff0fd"></path><path d="M13.83 0 C72.41 0, 130.99 0, 164.92 0 M164.92 0 C174.14 0, 178.75 4.61, 178.75 13.83 M178.75 13.83 C178.75 20.87, 178.75 27.91, 178.75 41.48 M178.75 41.48 C178.75 50.69, 174.14 55.3, 164.92 55.3 M164.92 55.3 C115.17 55.3, 65.41 55.3, 13.83 55.3 M13.83 55.3 C4.61 55.3, 0 50.69, 0 41.48 M0 41.48 C0 30.58, 0 19.68, 0 13.83 M0 13.83 C0 4.61, 4.61 0, 13.83 0" stroke="transparent" stroke-width="1.5" fill="none" stroke-dasharray="1.5 7"></path></g><g transform="translate(251.12477735667846 1020.1712599622857) rotate(0 75 19.19999999999999)"><text x="75" y="0" font-family="Cascadia, Segoe UI Emoji" font-size="16px" fill="#1e1e1e" text-anchor="middle" style="white-space: pre;" direction="ltr" dominant-baseline="text-before-edge">(Foo created by </text><text x="75" y="19.2" font-family="Cascadia, Segoe UI Emoji" font-size="16px" fill="#1e1e1e" text-anchor="middle" style="white-space: pre;" direction="ltr" dominant-baseline="text-before-edge">Function)</text></g><g transform="translate(713.6338175988865 1202.0766101097904) rotate(0 52.734375 12)"><text x="52.734375" y="0" font-family="Cascadia, Segoe UI Emoji" font-size="20px" fill="#343a40" text-anchor="middle" style="white-space: pre;" direction="ltr" dominant-baseline="text-before-edge">__proto__</text></g></svg>